# xmcd
#
# Track frame offsets:
#	150
#	17755
#	38034
#	54913
#	75427
#	100621
#	116451
#	143663
#	161865
#	180420
#	194813
#	217858
#	236764
#	254534
#	278704
#	302493
#	325171
#
# Disc length: 4665
#
# Revision: 1
# Processed by: cddbd v1.5.1PL0 Copyright (c) Steve Scherf et al.
# Submitted via: CDex 1.50beta10
# Normalized: r0:TDELIM( - )
#
DISCID=dd123711
DTITLE=Various Artist - JAZZFM THE ALBUM [CDOne)
DYEAR=2003
DGENRE=Jazz
TTITLE0=Marvin Gaye - Let's get it on
TTITLE1=Angie Stone - Wish I didn't miss you
TTITLE2=Simply Red - Fake (Radio Mix)
TTITLE3=Incognito - Can't get you out of my head
TTITLE4=The Isley Brothers - That Lady (Part 1)
TTITLE5=Dennis Taylor - In the mood
TTITLE6=Jazoulster ft Maysa - Family Affair
TTITLE7=Mitchell and Dewbury - Beyond the Rains
TTITLE8=Bill Withers - Lovely Day
TTITLE9=Al Green - I'm still in love with you
TTITLE10=Dave McMurray ft Bonnie Peele - Killing me softly with his song
TTITLE11=Kenny and Chanté Moore - One more time
TTITLE12=Paul Hardcastle - Ventura Highway
TTITLE13=Daryl Hall - Cab Driver
TTITLE14=Niteflyte ft Jean Carne - If you believe
TTITLE15=Kool and The Gang - Too Hot
TTITLE16=The Chimes - Still haven't found what I'm looking for
EXTD=YEAR: 2003
EXTT0=
EXTT1=
EXTT2=
EXTT3=
EXTT4=
EXTT5=
EXTT6=
EXTT7=
EXTT8=
EXTT9=
EXTT10=
EXTT11=
EXTT12=
EXTT13=
EXTT14=
EXTT15=
EXTT16=
PLAYORDER=
